# xmcd CD database file
#
# Track frame offsets:
#	150
#	15157
#	31170
#	49712
#	68345
#	85245
#	102365
#	117580
#	133412
#	152872
#	174407
#	187647
#	199365
#	211167
#	223845
#	236525
#
# Disc length: 3356 seconds
#
# Revision: 1
# Processed by: cddbd v1.5.1PL0 Copyright (c) Steve Scherf et al.
# Submitted via: CDex 1.51
#
DISCID=d50d1a10
DTITLE=Marty Robbins - I Love Country
DYEAR=1991
DGENRE=Country
TTITLE0=Some Memories Just Won't Die
TTITLE1=My Woman, My Woman, My Wife
TTITLE2=Good Hearted Woman
TTITLE3=The Air That I Breathe
TTITLE4=My Elusive Dreams
TTITLE5=Oh, My Papa
TTITLE6=She's Made Of Faith
TTITLE7=I'm Just Here To Get My Baby Out Of Jail
TTITLE8=El Paso City
TTITLE9=Sometimes When We Touch
TTITLE10=Return To Me
TTITLE11=Among My Souvenirs
TTITLE12=Eighteen Tellow Roses
TTITLE13=Don't Let Me Touch You
TTITLE14=Honkytonk Man
TTITLE15=The Performer
EXTD=YEAR: 1991
EXTT0=
EXTT1=
EXTT2=
EXTT3=
EXTT4=
EXTT5=
EXTT6=
EXTT7=
EXTT8=
EXTT9=
EXTT10=
EXTT11=
EXTT12=
EXTT13=
EXTT14=
EXTT15=
PLAYORDER=
